Coordinates
version=1
nRows=38
nColumns=12
inDegrees=yes

Units are S.I. units (second, meters, Newtons, ...)
Angles are in degrees

endheader
time	SC_y	SC_z	SC_x	AC_y	AC_z	AC_x	GH_y	GH_z	GH_yy	EL_x	PS_y
       0.0              -58.64          18.49          2.966          47.37           1.35          10.65          61.53          58.73         -56.04          42.12          29.87
   0.04707              -58.64          18.48          2.966          47.37          1.348          10.65          61.51          58.73         -56.06          42.12          29.89
   0.09414              -58.64          18.48          2.966          47.36          1.345          10.65           61.5          58.73         -56.07          42.12           29.9
    0.1412              -58.64          18.48          2.966          47.36          1.342          10.65          61.48          58.74         -56.09          42.12          29.92
    0.1883              -58.64          18.48          2.966          47.36          1.338          10.64          61.46          58.74         -56.11          42.13          29.93
    0.2353              -58.64          18.47          2.965          47.36          1.335          10.64          61.44          58.74         -56.12          42.13          29.95
    0.2824              -58.64          18.47          2.965          47.36          1.331          10.64          61.41          58.74         -56.14          42.14          29.97
    0.3295              -58.64          18.47          2.965          47.35          1.327          10.63          61.39          58.74         -56.17          42.14          29.99
    0.3766              -58.64          18.47          2.965          47.35          1.323          10.63          61.36          58.74         -56.19          42.14          30.01
    0.4236              -58.64          18.46          2.965          47.35          1.318          10.63          61.34          58.74         -56.21          42.15          30.04
    0.4707              -58.64          18.46          2.964          47.35          1.314          10.62          61.31          58.75         -56.24          42.15          30.06
    0.5178              -58.64          18.46          2.964          47.34          1.308          10.62          61.28          58.75         -56.27          42.16          30.09
    0.5648              -58.64          18.45          2.964          47.34          1.303          10.61          61.24          58.75          -56.3          42.17          30.12
    0.6119              -58.64          18.45          2.964          47.34          1.297          10.61           61.2          58.75         -56.33          42.17          30.15
     0.659              -58.64          18.44          2.963          47.33           1.29           10.6          61.16          58.75         -56.37          42.18          30.18
     0.706              -58.64          18.44          2.963          47.33          1.283           10.6          61.12          58.76          -56.4          42.19          30.22
    0.7531              -58.64          18.43          2.962          47.32          1.275          10.59          61.07          58.76         -56.45          42.19          30.26
    0.8002              -58.64          18.42          2.962          47.32          1.266          10.59          61.02          58.76         -56.49           42.2           30.3
    0.8472              -58.64          18.42          2.962          47.31          1.257          10.58          60.97          58.77         -56.54          42.21          30.35
    0.8943              -58.64          18.41          2.961          47.31          1.247          10.57           60.9          58.77          -56.6          42.22           30.4
    0.9414              -58.64           18.4          2.961           47.3          1.236          10.56          60.84          58.77         -56.66          42.24          30.46
    0.9885              -58.64          18.39           2.96          47.29          1.223          10.55          60.76          58.78         -56.72          42.25          30.52
     1.036              -58.64          18.38          2.959          47.28           1.21          10.54          60.68          58.78          -56.8          42.26          30.59
     1.083              -58.64          18.37          2.958          47.27          1.195          10.53          60.59          58.79         -56.88          42.28          30.66
      1.13              -58.64          18.36          2.958          47.26          1.178          10.52          60.49          58.79         -56.97           42.3          30.75
     1.177              -58.64          18.34          2.957          47.25          1.159           10.5          60.38           58.8         -57.07          42.32          30.84
     1.224              -58.64          18.33          2.956          47.24          1.138          10.48          60.25          58.81         -57.18          42.34          30.95
     1.271              -58.63          18.31          2.954          47.23          1.115          10.47          60.11          58.81         -57.31          42.36          31.07
     1.318              -58.63          18.29          2.953          47.21          1.088          10.44          59.95          58.82         -57.45          42.39           31.2
     1.365              -58.63          18.27          2.952          47.19          1.058          10.42          59.76          58.83         -57.61          42.42          31.36
     1.412              -58.63          18.24           2.95          47.17          1.023          10.39          59.56          58.85         -57.79          42.46          31.53
     1.459              -58.63          18.21          2.948          47.15         0.9836          10.36          59.32          58.86         -58.01           42.5          31.73
     1.506              -58.63          18.18          2.946          47.12         0.9379          10.33          59.04          58.88         -58.25          42.55          31.96
     1.553              -58.63          18.14          2.943          47.09         0.8848          10.28          58.72          58.89         -58.54           42.6          32.23
       1.6              -58.63          18.09           2.94          47.05         0.8226          10.23          58.35          58.92         -58.87          42.67          32.55
     1.647              -58.62          18.04          2.936           47.0         0.7493          10.18          57.91          58.94         -59.26          42.74          32.92
     1.694              -58.62          17.97          2.932          46.95         0.6622          10.11          57.38          58.97         -59.73          42.83          33.36
     1.742              -58.62           17.9          2.927          46.89         0.5578          10.02          56.75          59.01         -60.29          42.94          33.89
